<svg id="Layer_1" data-name="Layer 1" xmlns="http://www.w3.org/2000/svg" xmlns:xlink="http://www.w3.org/1999/xlink" viewBox="0 0 668.81 861.21"><defs><style>.cls-1{fill:url(#linear-gradient);}.cls-2{fill:url(#linear-gradient-2);}.cls-3{fill:url(#linear-gradient-3);}.cls-4{fill:url(#linear-gradient-4);}.cls-5{fill:url(#linear-gradient-5);}.cls-6{fill:url(#linear-gradient-6);}.cls-7{fill:#307ecc;}</style><linearGradient id="linear-gradient" x1="342.91" y1="630.67" x2="385.72" y2="556.51" gradientTransform="matrix(3.64, 0, 0, -3.64, -1249.68, 2492.46)" gradientUnits="userSpaceOnUse"><stop offset="0" stop-color="#3076c4"/><stop offset="0.35" stop-color="#3074c2"/><stop offset="0.56" stop-color="#306bba"/><stop offset="0.73" stop-color="#305dac"/><stop offset="0.87" stop-color="#304999"/><stop offset="1" stop-color="#303182"/></linearGradient><linearGradient id="linear-gradient-2" x1="359.53" y1="637.06" x2="441.78" y2="656.5" gradientTransform="matrix(3.64, 0, 0, -3.64, -1249.68, 2492.46)" gradientUnits="userSpaceOnUse"><stop offset="0" stop-color="#303182"/><stop offset="0.3" stop-color="#305baa"/><stop offset="0.59" stop-color="#307ecc"/><stop offset="0.76" stop-color="#307cca"/><stop offset="0.84" stop-color="#3075c3"/><stop offset="0.89" stop-color="#3068b7"/><stop offset="0.94" stop-color="#3056a6"/><stop offset="0.98" stop-color="#303f90"/><stop offset="1" stop-color="#303182"/></linearGradient><linearGradient id="linear-gradient-3" x1="449.3" y1="691.4" x2="505.74" y2="593.66" gradientTransform="matrix(3.64, 0, 0, -3.64, -1249.68, 2492.46)" gradientUnits="userSpaceOnUse"><stop offset="0" stop-color="#307ecc"/><stop offset="0.46" stop-color="#307cca"/><stop offset="0.63" stop-color="#3075c3"/><stop offset="0.76" stop-color="#3069b8"/><stop offset="0.86" stop-color="#3058a7"/><stop offset="0.95" stop-color="#304292"/><stop offset="1" stop-color="#303182"/></linearGradient><linearGradient id="linear-gradient-4" x1="448.09" y1="628.89" x2="504.94" y2="530.42" gradientTransform="matrix(3.64, 0, 0, -3.64, -1249.68, 2492.46)" gradientUnits="userSpaceOnUse"><stop offset="0" stop-color="#307ecc"/><stop offset="0.24" stop-color="#307ac8"/><stop offset="0.46" stop-color="#306fbd"/><stop offset="0.68" stop-color="#305cab"/><stop offset="0.9" stop-color="#304191"/><stop offset="1" stop-color="#303182"/></linearGradient><linearGradient id="linear-gradient-5" x1="355.57" y1="526.4" x2="440.09" y2="526.4" gradientTransform="matrix(3.64, 0, 0, -3.64, -1249.68, 2492.46)" gradientUnits="userSpaceOnUse"><stop offset="0" stop-color="#307ecc"/><stop offset="0.47" stop-color="#307cca"/><stop offset="0.64" stop-color="#3075c4"/><stop offset="0.77" stop-color="#306ab8"/><stop offset="0.86" stop-color="#3059a8"/><stop offset="0.95" stop-color="#304393"/><stop offset="1" stop-color="#303182"/></linearGradient><linearGradient id="linear-gradient-6" x1="443.11" y1="517.53" x2="512.58" y2="547.59" gradientTransform="matrix(3.64, 0, 0, -3.64, -1249.68, 2492.46)" gradientUnits="userSpaceOnUse"><stop offset="0" stop-color="#307ecc"/><stop offset="0.36" stop-color="#307cca"/><stop offset="0.56" stop-color="#3074c2"/><stop offset="0.71" stop-color="#3066b5"/><stop offset="0.85" stop-color="#3053a3"/><stop offset="0.96" stop-color="#303a8b"/><stop offset="1" stop-color="#303182"/></linearGradient></defs><title>Gruslab logo medium</title><polygon class="cls-1" points="175.72 455.77 43.82 532.32 39.11 175.48 175.72 255.56 175.72 455.77"/><polygon class="cls-2" points="346.49 154.28 175.72 255.56 39.11 175.48 346.49 0 346.49 154.28"/><polygon class="cls-3" points="626.78 312.09 346.49 154.28 346.49 0 624.42 153.1 626.78 312.09"/><polygon class="cls-4" points="624.42 541.74 344.28 383.84 344.28 226.03 621.04 383.84 624.42 541.74"/><polygon class="cls-5" points="351.19 703.08 43.82 532.32 174.54 453.41 350.02 547.63 351.19 703.08"/><polygon class="cls-6" points="351.19 703.08 624.42 541.74 491.34 466.37 350.02 547.63 351.19 703.08"/><path class="cls-7" d="M258.11,874.67H272.9v42.05a57.43,57.43,0,0,1-18.64,10.16,69.64,69.64,0,0,1-22.17,3.54,60.21,60.21,0,0,1-29.42-7.16,53,53,0,0,1-20.56-19.71,57.34,57.34,0,0,1,0-56.6,52.28,52.28,0,0,1,20.64-19.71,61.59,61.59,0,0,1,29.64-7.08,62.58,62.58,0,0,1,23.49,4.23,48.07,48.07,0,0,1,17.94,12.4l-9.55,9.55A43.37,43.37,0,0,0,233,833.86a45.44,45.44,0,0,0-22.1,5.32A38.9,38.9,0,0,0,195.59,854a43.46,43.46,0,0,0,0,42.5,39.47,39.47,0,0,0,15.32,14.87,44.73,44.73,0,0,0,22,5.39q14.46,0,25.25-6.93Z" transform="translate(-174.64 -69.22)"/><path class="cls-7" d="M325.72,850.5q7.53-3.71,18.32-3.7v14.32a29.62,29.62,0,0,0-3.39-.15q-12,0-18.86,7.16t-6.85,20.4v40.66H300.15V847.57h14.17v13.71A25.1,25.1,0,0,1,325.72,850.5Z" transform="translate(-174.64 -69.22)"/><path class="cls-7" d="M439.37,847.57v81.62h-14V916.87a29.7,29.7,0,0,1-11.78,9.78,36.77,36.77,0,0,1-15.94,3.46q-16.32,0-25.72-9t-9.39-26.56v-47H377.3v45.28q0,11.85,5.7,17.94t16.33,6.08q11.7,0,18.48-7.08t6.77-20v-42.2Z" transform="translate(-174.64 -69.22)"/><path class="cls-7" d="M471.7,927.42q-9.24-2.7-14.47-6.85l6.16-11.71A44,44,0,0,0,476.48,915,53.85,53.85,0,0,0,492,917.33q19.41,0,19.41-11.09a7.2,7.2,0,0,0-2.62-5.85,16.76,16.76,0,0,0-6.55-3.16q-3.93-1-11.16-2.23a109.38,109.38,0,0,1-16.1-3.54,24.75,24.75,0,0,1-10.7-6.78q-4.47-4.77-4.46-13.39,0-11.1,9.24-17.79t24.79-6.7a68.51,68.51,0,0,1,16.32,2,44,44,0,0,1,13.4,5.39l-6.31,11.71q-10-6.48-23.56-6.47-9.41,0-14.33,3.08t-4.92,8.16a7.77,7.77,0,0,0,2.77,6.31,17.55,17.55,0,0,0,6.85,3.39q4.08,1.08,11.47,2.47a123.32,123.32,0,0,1,15.94,3.62,23.78,23.78,0,0,1,10.4,6.54q4.3,4.62,4.31,12.94,0,11.09-9.47,17.63T491,930.11A68.66,68.66,0,0,1,471.7,927.42Z" transform="translate(-174.64 -69.22)"/><path class="cls-7" d="M544.7,814.92h14.78V929.19H544.7Z" transform="translate(-174.64 -69.22)"/><path class="cls-7" d="M643.33,855.12q9,8.31,9,24.79v49.28h-14V918.41a23.32,23.32,0,0,1-10.55,8.7,40.32,40.32,0,0,1-16.25,3q-13.71,0-21.94-6.62a21.21,21.21,0,0,1-8.24-17.4q0-10.79,7.85-17.33t24.95-6.54h23.41v-2.93q0-9.54-5.54-14.63t-16.33-5.08A43.25,43.25,0,0,0,601.52,862a36.41,36.41,0,0,0-11.7,6.39l-6.16-11.09a44.55,44.55,0,0,1,15.09-7.77,63,63,0,0,1,18.63-2.7Q634.33,846.8,643.33,855.12Zm-14.7,59.82a21.6,21.6,0,0,0,8.93-10.7V892.85H614.77q-18.79,0-18.79,12.62a11.44,11.44,0,0,0,4.77,9.71q4.77,3.54,13.25,3.54A27.45,27.45,0,0,0,628.63,914.94Z" transform="translate(-174.64 -69.22)"/><path class="cls-7" d="M744.28,852A37.62,37.62,0,0,1,759,866.67a43.35,43.35,0,0,1,5.31,21.71A43.79,43.79,0,0,1,759,910.17a37.56,37.56,0,0,1-14.71,14.71A42.9,42.9,0,0,1,723,930.11a38.62,38.62,0,0,1-16.63-3.54,32,32,0,0,1-12.48-10.32v12.94H679.75V814.92h14.79v45a31.38,31.38,0,0,1,12.32-9.78A39.07,39.07,0,0,1,723,846.8,42.91,42.91,0,0,1,744.28,852Zm-8.39,61.52a26.05,26.05,0,0,0,9.85-10.17,32.95,32.95,0,0,0,0-30,25.55,25.55,0,0,0-9.85-10.08,29.67,29.67,0,0,0-28.11,0,24.84,24.84,0,0,0-9.85,10.08,33.53,33.53,0,0,0,0,30,25.32,25.32,0,0,0,9.85,10.17,29.09,29.09,0,0,0,28.11,0Z" transform="translate(-174.64 -69.22)"/><path class="cls-7" d="M788.94,927.42q-9.24-2.7-14.48-6.85l6.16-11.71A44.13,44.13,0,0,0,793.71,915a53.87,53.87,0,0,0,15.56,2.31q19.4,0,19.4-11.09a7.17,7.17,0,0,0-2.62-5.85,16.64,16.64,0,0,0-6.54-3.16q-3.93-1-11.17-2.23a109.21,109.21,0,0,1-16.09-3.54,24.64,24.64,0,0,1-10.7-6.78q-4.47-4.77-4.47-13.39,0-11.1,9.24-17.79t24.79-6.7a68.59,68.59,0,0,1,16.33,2,44.13,44.13,0,0,1,13.4,5.39l-6.32,11.71q-10-6.48-23.56-6.47-9.39,0-14.32,3.08t-4.93,8.16a7.77,7.77,0,0,0,2.77,6.31,17.55,17.55,0,0,0,6.85,3.39q4.08,1.08,11.48,2.47a123.71,123.71,0,0,1,15.94,3.62A23.75,23.75,0,0,1,839.14,893q4.32,4.62,4.31,12.94,0,11.09-9.47,17.63t-25.79,6.54A68.6,68.6,0,0,1,788.94,927.42Z" transform="translate(-174.64 -69.22)"/></svg>