<svg width="168" height="32" viewBox="0 0 168 32" fill="none" xmlns="http://www.w3.org/2000/svg">
<g clip-path="url(#clip0_658_2647)">
<path fill-rule="evenodd" clip-rule="evenodd" d="M5.19617 8.72513C4.714 9.2073 3.68054 10.2406 2.57556 11.3455C1.79552 12.1256 0.979928 12.9414 0.296875 13.6242C4.34107 16.4416 7.98567 16.6636 9.75809 14.8914C10.4635 14.1858 11.6364 13.0129 12.8897 11.7594C14.0514 10.5977 16.189 8.46025 18.2779 6.37158C18.2779 6.37158 15.4783 6.96733 12.2106 6.96733C9.28936 6.96733 6.4009 7.52041 5.19617 8.72513Z" fill="#F4B400"/>
<path fill-rule="evenodd" clip-rule="evenodd" d="M18.6706 13.4265C18.6706 10.1587 19.2664 7.35938 19.2664 7.35938C17.1777 9.44804 15.04 11.5857 13.8784 12.7474L10.7466 15.8792C8.97415 17.6514 9.19617 21.296 12.0137 25.34L14.2924 23.0613L16.9128 20.4411C18.1175 19.2362 18.6706 16.3477 18.6706 13.4265Z" fill="#F4B400"/>
<path fill-rule="evenodd" clip-rule="evenodd" d="M16.0741 1.47079C12.2812 1.47079 8.5309 2.1888 6.96648 3.75323C5.89844 4.82107 2.74786 7.97164 0.605469 10.114C1.27173 10.5784 1.9299 10.9881 2.57542 11.3454C3.68039 10.2405 4.71366 9.20718 5.19603 8.72502C6.40056 7.52029 9.28901 6.96721 12.2103 6.96721C15.478 6.96721 18.2775 6.37147 18.2775 6.37147C21.1613 3.48775 23.9517 0.697266 23.9517 0.697266C23.9517 0.697266 20.3168 1.47079 16.0741 1.47079Z" fill="#003580"/>
<path fill-rule="evenodd" clip-rule="evenodd" d="M19.2669 7.35946C19.2669 7.35946 18.6712 10.1588 18.6712 13.4265C18.6712 16.3478 18.1183 19.2362 16.9134 20.4412L14.293 23.0614C14.6503 23.7071 15.06 24.3651 15.5244 25.0315C17.6668 22.8889 20.8173 19.7384 21.8854 18.6705C23.4496 17.1063 24.1678 13.3556 24.1678 9.56269C24.1678 5.31998 24.9413 1.68506 24.9413 1.68506C24.9413 1.68506 22.1508 4.47574 19.2669 7.35946Z" fill="#003580"/>
<path fill-rule="evenodd" clip-rule="evenodd" d="M42.254 23.9666C40.1473 23.9666 38.2594 23.4811 36.5898 22.5094L37.377 19.9416C38.124 20.3558 38.9371 20.6902 39.8155 20.9448C40.6939 21.1998 41.5504 21.3272 42.3851 21.3272C43.4107 21.3272 44.1858 21.1062 44.7106 20.6641C45.2353 20.2223 45.4976 19.5874 45.4976 18.7592C45.4976 17.6603 44.7661 16.9 43.3032 16.4779C43.1999 16.4463 42.9098 16.3604 42.4329 16.2211C41.9559 16.0819 41.5089 15.9464 41.0913 15.815C40.6741 15.6835 40.3739 15.5821 40.1912 15.5104C37.8459 14.6824 36.6734 13.1377 36.6734 10.8762C36.6734 9.29184 37.2358 8.06953 38.3607 7.20949C39.4854 6.34945 40.9781 5.91943 42.8383 5.91943C44.9449 5.91943 46.7614 6.3536 48.2879 7.22134L47.3101 9.58635C45.7518 8.88572 44.3051 8.5351 42.9694 8.5351C42.0077 8.5351 41.2821 8.70439 40.7932 9.04275C40.3044 9.38132 40.044 9.94467 40.0122 10.7328C40.0122 11.7044 40.4932 12.3375 41.4552 12.632C41.646 12.7035 42.1149 12.859 42.8622 13.0978C43.6092 13.3368 44.0943 13.4921 44.317 13.5636C45.9148 14.089 47.0575 14.7422 47.7453 15.5223C48.4327 16.3027 48.7766 17.3897 48.7766 18.7831C48.7766 20.4474 48.1883 21.7272 47.012 22.623C45.8354 23.5188 44.2494 23.9666 42.254 23.9666Z" fill="#003580"/>
<path fill-rule="evenodd" clip-rule="evenodd" d="M56.9692 23.9784C54.9658 23.9784 53.4055 23.3813 52.2889 22.187C51.1717 20.9926 50.6133 19.2845 50.6133 17.0629C50.6133 14.913 51.1995 13.2451 52.3723 12.0585C53.5448 10.8722 55.0889 10.2788 57.0049 10.2788C58.5391 10.2788 59.8349 10.6093 60.8923 11.2702L60.1529 13.5037C59.0718 12.9383 58.0662 12.6557 57.1361 12.6557C56.0787 12.6557 55.2459 13.0339 54.6379 13.7903C54.0297 14.547 53.7257 15.6496 53.7257 17.0989C53.7257 18.5639 54.0258 19.6786 54.6261 20.4432C55.2262 21.2075 56.0749 21.5897 57.1718 21.5897C58.3165 21.5897 59.4177 21.2513 60.4749 20.5746L60.7732 22.9512C60.2244 23.3177 59.6561 23.5804 59.0679 23.7396C58.4795 23.8988 57.78 23.9784 56.9692 23.9784Z" fill="#003580"/>
<path fill-rule="evenodd" clip-rule="evenodd" d="M67.5577 21.757C68.2808 21.757 68.9111 21.5838 69.4476 21.2373C69.9843 20.8911 70.3677 20.4711 70.5984 19.9773V17.4452C70.5743 17.4452 70.3659 17.4612 69.9725 17.493C69.5788 17.5248 69.366 17.5408 69.3344 17.5408C68.0705 17.6524 67.144 17.8912 66.556 18.2574C65.9676 18.6238 65.6736 19.2129 65.6736 20.0249C65.6736 20.5825 65.8364 21.0106 66.1625 21.309C66.4882 21.6077 66.9532 21.757 67.5577 21.757ZM66.7112 23.9784C65.4948 23.9784 64.5109 23.6422 63.7597 22.9692C63.0085 22.2964 62.6328 21.327 62.6328 20.0608C62.6328 18.6994 63.078 17.6901 63.9685 17.0331C64.8588 16.3763 66.2023 15.9601 67.9989 15.7851C68.2452 15.7531 68.5117 15.7213 68.7979 15.6893C69.0841 15.6577 69.4059 15.6259 69.7638 15.5939C70.1215 15.5623 70.4036 15.5341 70.6104 15.5103V14.8174C70.6104 14.0214 70.4273 13.442 70.0619 13.0798C69.696 12.7175 69.1396 12.5362 68.3925 12.5362C67.3271 12.5362 66.0115 12.8348 64.4453 13.432C64.4374 13.4081 64.3063 13.0458 64.0521 12.3452C63.7974 11.6445 63.6663 11.2862 63.6586 11.2702C65.2005 10.6093 66.87 10.2788 68.6667 10.2788C70.4316 10.2788 71.7154 10.663 72.5183 11.4314C73.3213 12.2 73.7226 13.444 73.7226 15.1639V23.7277H71.4094C71.4013 23.6959 71.314 23.4291 71.1471 22.9273C70.98 22.4258 70.8966 22.1592 70.8966 22.1272C70.2448 22.7644 69.6068 23.2319 68.9828 23.5306C68.3586 23.8291 67.6014 23.9784 66.7112 23.9784Z" fill="#003580"/>
<path fill-rule="evenodd" clip-rule="evenodd" d="M81.4615 23.9069C80.5629 23.9069 79.8178 23.8013 79.2256 23.5903C78.6332 23.3795 78.1661 23.043 77.8244 22.5811C77.4824 22.1195 77.244 21.57 77.1089 20.9328C76.9736 20.2959 76.9062 19.5036 76.9062 18.5561V7.00721C76.9062 6.3208 77.4629 5.76416 78.1493 5.76416H80.0306V18.4962C80.0306 19.6749 80.1694 20.4729 80.4477 20.8911C80.7259 21.3093 81.2665 21.518 82.0694 21.518C82.4671 21.518 82.9718 21.4746 83.5839 21.3867L83.6674 23.6203C83.6595 23.6203 83.562 23.6401 83.3751 23.68C83.1884 23.7199 83.0095 23.7537 82.8388 23.7815C82.6676 23.8094 82.4513 23.837 82.1889 23.8651C81.9264 23.8929 81.6839 23.9069 81.4615 23.9069Z" fill="#003580"/>
<path fill-rule="evenodd" clip-rule="evenodd" d="M87.7352 15.8327H93.459C93.459 14.7659 93.2162 13.9455 92.7315 13.3723C92.2465 12.7991 91.5748 12.5125 90.7163 12.5125C89.9131 12.5125 89.2356 12.7912 88.6831 13.3486C88.1305 13.9058 87.8144 14.7341 87.7352 15.8327ZM91.2048 23.9784C89.0982 23.9784 87.4587 23.3714 86.2861 22.1572C85.1134 20.9428 84.5273 19.2648 84.5273 17.1226C84.5273 15.0367 85.0798 13.3764 86.1846 12.1421C87.2896 10.9079 88.7961 10.2869 90.7041 10.2788C92.5087 10.2788 93.9097 10.8443 94.9077 11.975C95.905 13.1056 96.4041 14.6067 96.4041 16.4778C96.4041 16.6131 96.402 16.8322 96.398 17.1346C96.3941 17.4374 96.3921 17.6602 96.3921 17.8037H87.6754C87.707 19.0299 88.043 19.9794 88.6829 20.652C89.3227 21.3252 90.2033 21.6614 91.3243 21.6614C92.7552 21.6614 94.1304 21.2871 95.4501 20.5386L95.8913 22.7602C94.5796 23.5725 93.0175 23.9784 91.2048 23.9784Z" fill="#003580"/>
<path fill-rule="evenodd" clip-rule="evenodd" d="M99.778 23.7278V12.6796H97.7031V10.6014H99.778V9.87293C99.778 9.0767 99.8514 8.39601 99.9986 7.83049C100.146 7.26516 100.386 6.78142 100.72 6.37925C101.054 5.97728 101.501 5.67862 102.062 5.48346C102.622 5.2885 103.312 5.19092 104.13 5.19092C104.925 5.19092 105.736 5.26677 106.563 5.41788L106.289 7.74694C105.637 7.65943 105.124 7.61558 104.751 7.61558C104.083 7.61558 103.608 7.77676 103.326 8.09913C103.043 8.42169 102.902 8.95739 102.902 9.70563V10.6014H105.979V12.6796H102.902V23.7278H99.778Z" fill="#003580"/>
<path fill-rule="evenodd" clip-rule="evenodd" d="M117.462 22.6946C116.42 23.5507 115.049 23.9786 113.348 23.9786C111.647 23.9786 110.277 23.5529 109.24 22.7006C108.202 21.8488 107.684 20.5987 107.684 18.9503V10.6016H110.82V18.8308C110.82 19.8101 111.024 20.5191 111.434 20.9568C111.843 21.3949 112.493 21.6138 113.383 21.6138C114.258 21.6138 114.896 21.3969 115.297 20.9627C115.699 20.5289 115.9 19.8182 115.9 18.8308V10.6016H119.024V18.9503C119.024 20.5908 118.503 21.8388 117.462 22.6946Z" fill="#003580"/>
<path fill-rule="evenodd" clip-rule="evenodd" d="M126.06 23.9663C124.129 23.9663 122.582 23.6361 121.422 22.9749L121.744 20.622C122.268 20.9088 122.936 21.1656 123.747 21.3925C124.558 21.6195 125.297 21.7329 125.965 21.7329C126.657 21.7329 127.195 21.6035 127.581 21.3447C127.966 21.0862 128.163 20.7057 128.171 20.204C128.171 19.7503 127.99 19.392 127.628 19.1293C127.267 18.8666 126.577 18.5398 125.56 18.1499C125.209 18.0225 124.983 17.9388 124.88 17.8989C123.671 17.4291 122.801 16.9057 122.268 16.3283C121.736 15.7511 121.469 14.9687 121.469 13.9813C121.469 12.787 121.9 11.8715 122.763 11.2343C123.626 10.5972 124.828 10.2788 126.37 10.2788C128.04 10.2788 129.507 10.5935 130.77 11.2222L129.995 13.3842C128.747 12.803 127.559 12.5123 126.43 12.5123C125.802 12.5123 125.311 12.6177 124.957 12.8287C124.603 13.0399 124.427 13.3603 124.427 13.7901C124.427 14.1964 124.598 14.513 124.939 14.7398C125.281 14.9666 125.949 15.2634 126.943 15.6297C126.974 15.6376 127.078 15.6735 127.253 15.7371C127.428 15.8009 127.563 15.8527 127.658 15.8924C128.858 16.3305 129.741 16.8537 130.305 17.4629C130.87 18.0721 131.152 18.8666 131.152 19.8459C131.144 21.1597 130.699 22.175 129.817 22.8916C128.934 23.6082 127.682 23.9663 126.06 23.9663Z" fill="#003580"/>
<path fill-rule="evenodd" clip-rule="evenodd" d="M133.692 23.7282H136.816V10.6018H133.692V23.7282ZM133.691 8.69066V7.25818C133.691 6.57177 134.248 6.01514 134.934 6.01514H136.827V8.69066H133.691Z" fill="#003580"/>
<path fill-rule="evenodd" clip-rule="evenodd" d="M145.781 21.6018C146.839 21.6018 147.634 21.2156 148.166 20.4433C148.699 19.6709 148.965 18.564 148.965 17.1226C148.965 15.6656 148.699 14.5547 148.166 13.7903C147.634 13.0261 146.831 12.6438 145.758 12.6438C144.7 12.6438 143.903 13.028 143.367 13.7962C142.83 14.565 142.562 15.6775 142.562 17.1347C142.562 18.5681 142.832 19.6709 143.373 20.4433C143.913 21.2156 144.716 21.6018 145.781 21.6018ZM145.698 23.9784C143.758 23.9784 142.232 23.3497 141.119 22.0914C140.006 20.8333 139.449 19.1771 139.449 17.1226C139.449 15.0049 140.006 13.3346 141.119 12.1123C142.232 10.89 143.802 10.2788 145.829 10.2788C147.785 10.2788 149.317 10.902 150.426 12.148C151.535 13.3944 152.089 15.0525 152.089 17.1226C152.089 19.217 151.529 20.8831 150.408 22.1212C149.287 23.3593 147.717 23.9784 145.698 23.9784Z" fill="#003580"/>
<path fill-rule="evenodd" clip-rule="evenodd" d="M154.641 23.7275V10.6012H157.157L157.502 12.2614C158.838 10.9397 160.321 10.2788 161.95 10.2788C163.476 10.2788 164.619 10.7189 165.378 11.5985C166.138 12.4785 166.517 13.7545 166.517 15.4266V23.7275H163.381V15.8088C163.373 14.7499 163.202 13.9574 162.868 13.432C162.535 12.9063 161.934 12.6436 161.068 12.6436C160.392 12.6436 159.774 12.8169 159.213 13.1631C158.653 13.5096 158.246 13.9455 157.991 14.4712C157.84 15.092 157.765 16.0476 157.765 17.3375V23.7275H154.641Z" fill="#003580"/>
</g>
<defs>
<clipPath id="clip0_658_2647">
<rect width="168" height="31" fill="white" transform="translate(0 0.5)"/>
</clipPath>
</defs>
</svg>
